<svg version="1.1" xmlns="http://www.w3.org/2000/svg" style="display: block;" viewBox="0 0 2048 2048" width="1024" height="1024">
<path transform="translate(0,0)" fill="rgb(255,255,255)" d="M 0 0 L 2048 0 L 2048 2048 L 0 2048 L 0 0 z"/>
<path transform="translate(0,0)" fill="rgb(0,0,0)" d="M 1038.84 366.532 C 1116.13 364.331 1194.21 367.963 1271.42 371.72 A 3623.16 3623.16 0 0 1 1702.54 414.598 A 4802.81 4802.81 0 0 1 1766.83 426.12 C 1783.42 429.174 1800.39 431.709 1816.49 436.824 A 189.25 189.25 0 0 1 1862.6 459.292 C 1905.54 487.895 1938.59 535.478 1948.41 586.308 C 1951.95 604.628 1953.38 623.428 1955.22 641.977 L 1962.3 715.752 C 1984.98 963.61 1974.87 1224.79 1918.58 1467.67 C 1913.45 1489.78 1901.8 1552.18 1890.34 1569.19 C 1876.9 1574.24 1861.67 1576.79 1847.71 1580.45 C 1810.9 1590.11 1774.27 1599.32 1737.03 1607.19 A 3487.04 3487.04 0 0 1 1008.5 1679.04 A 3801.37 3801.37 0 0 1 257.774 1596.62 C 241.88 1593.26 172.062 1579.64 162.876 1570.06 C 156.349 1563.25 148.303 1516.7 145.816 1505.5 A 3091.02 3091.02 0 0 1 74.8474 918.235 A 2857.34 2857.34 0 0 1 79.6206 689.332 C 81.291 659.552 81.4371 622.86 89.2938 594.526 C 97.2306 565.903 113.724 538.326 134.305 517.007 C 148.823 501.969 165.855 490.789 184.83 482.15 C 220.144 466.071 258.581 458.785 296.047 449.542 C 393.508 425.497 492.956 410.182 592.487 397.727 A 3931.64 3931.64 0 0 1 1038.84 366.532 z"/>
<path transform="translate(0,0)" fill="rgb(255,255,255)" d="M 1837.7 644.173 A 168.105 168.105 0 0 1 1843.11 643.945 C 1847.27 643.85 1853.18 644.555 1856.08 647.876 C 1857.01 648.936 1856.66 648.868 1856.43 650.366 C 1854.01 652.156 1852.34 652.841 1849.44 653.638 C 1844.02 653.626 1837.41 654.041 1832.51 651.434 C 1830.7 650.466 1831.35 651.053 1830.69 648.786 C 1832.52 646.248 1834.95 645.411 1837.7 644.173 z"/>
<path transform="translate(0,0)" fill="rgb(255,255,255)" d="M 1868.7 872.15 C 1875 871.652 1882.79 871.396 1888.49 874.534 C 1890.26 875.511 1890.47 875.695 1891.02 877.668 C 1889.21 879.745 1887.65 880.159 1885.17 881.167 C 1878.73 881.362 1869.89 882.199 1863.96 879.343 C 1862.11 878.452 1862.78 878.946 1861.9 876.78 C 1863.49 874.221 1866.08 873.379 1868.7 872.15 z"/>
<path transform="translate(0,0)" fill="rgb(255,255,255)" d="M 240.897 654.34 C 243.175 654.149 245.509 653.927 247.794 654.094 C 250.804 654.314 254.521 655.453 256.373 657.998 C 257.177 659.104 256.584 659.702 256.238 660.882 C 253.268 663.287 250.428 663.459 246.726 663.979 C 243.074 663.92 239.044 663.865 235.495 663.001 C 232.964 662.385 230.22 661.259 228.809 658.985 L 229.792 657.081 C 233.43 655.072 236.811 654.803 240.897 654.34 z"/>
<path transform="translate(0,0)" fill="rgb(255,255,255)" d="M 896.742 573.258 C 902.503 572.457 910.792 571.96 915.587 575.887 C 916.981 577.029 916.508 576.502 916.801 578.569 C 914.89 581.063 912.628 581.776 909.821 582.908 C 903.732 583.538 895.597 584.315 890.205 580.882 C 888.825 580.004 889.267 580.122 888.994 578.297 C 891.157 575.554 893.596 574.637 896.742 573.258 z"/>
<path transform="translate(0,0)" fill="rgb(255,255,255)" d="M 799.391 767.338 C 802.382 767.231 805.554 766.982 808.497 767.63 C 810.984 768.178 813.488 769.47 814.787 771.741 C 815.552 773.078 814.896 773.628 814.414 774.95 C 811.35 777.506 808.079 777.592 804.231 778.11 C 800.877 778.064 797.187 777.989 793.9 777.321 C 791.364 776.805 789.174 775.689 787.641 773.584 L 788.205 771.588 C 791.543 768.934 795.339 768.327 799.391 767.338 z"/>
<path transform="translate(0,0)" fill="rgb(255,255,255)" d="M 1221.03 476.144 C 1226.99 475.697 1232.87 475.955 1238.5 478.214 C 1240.87 479.164 1241.84 479.862 1242.8 482.189 C 1240.87 484.941 1239.25 485.29 1236.23 486.672 C 1230.34 487.23 1219.74 488.657 1214.77 484.968 C 1213.59 484.092 1213.94 483.442 1213.86 482.125 C 1215.52 479.16 1218.23 477.859 1221.03 476.144 z"/>
<path transform="translate(0,0)" fill="rgb(255,255,255)" d="M 660.607 525.081 C 664.315 524.985 668.281 524.7 671.905 525.597 C 675.135 526.396 679.405 527.709 681.174 530.689 L 680.673 532.512 C 677.746 534.698 675.204 535.208 671.661 535.927 C 667.775 536.005 663.69 536.262 659.827 535.802 C 656.078 535.356 651.985 534.367 649.6 531.401 L 650.305 529.622 C 653.576 527.285 656.796 526.28 660.607 525.081 z"/>
<path transform="translate(0,0)" fill="rgb(255,255,255)" d="M 646.544 902.791 C 650.536 910.664 652.112 921.374 654.378 929.973 L 641.25 929.509 L 634.294 929.771 C 638.191 920.67 642.173 911.679 646.544 902.791 z"/>
<path transform="translate(0,0)" fill="rgb(255,255,255)" d="M 178.917 931.306 C 180.968 931.251 182.973 931.376 185.008 931.628 C 189.178 932.144 191.048 933.002 193.675 936.452 C 193.96 939.367 193.803 939.277 192.078 941.684 C 188.524 943.838 184.866 943.786 180.843 944.042 C 177.869 943.874 174.873 943.74 171.914 943.373 C 168.564 942.958 166.707 941.621 164.629 938.967 C 164.613 937.434 164.268 936.92 165.356 935.672 C 168.606 931.94 174.329 931.887 178.917 931.306 z"/>
<path transform="translate(0,0)" fill="rgb(255,255,255)" d="M 435.372 927.801 C 440.692 937.313 444.877 949.005 448.537 959.303 C 436.486 961.933 424.877 965.434 413.251 969.506 L 402.479 972.815 C 412.328 957.172 424.223 942.534 435.372 927.801 z"/>
<path transform="translate(0,0)" fill="rgb(255,255,255)" d="M 630.848 937.166 C 639.554 937.208 648.12 938.075 656.851 937.596 C 659.633 946.474 662.407 955.32 664.705 964.339 C 662.585 965.625 658.323 964.753 655.754 964.591 C 643.731 963.649 631.79 963.359 619.737 963.204 C 622.767 954.336 627.047 945.736 630.848 937.166 z"/>
<path transform="translate(0,0)" fill="rgb(255,255,255)" d="M 1631.04 906.542 C 1639.33 916.718 1650.87 943.464 1657.61 956.293 C 1651.41 955.884 1645.22 955.237 1639.03 954.689 L 1612.12 951.555 A 2918.67 2918.67 0 0 1 1631.04 906.542 z"/>
<path transform="translate(0,0)" fill="rgb(255,255,255)" d="M 1539.27 621.563 C 1560.34 624.01 1582.63 639.052 1603.35 644.257 C 1609.19 645.725 1615.5 645.723 1621.49 646.164 C 1633.56 647.052 1648.06 649.179 1656.42 658.889 C 1628.47 660.241 1600.31 659.03 1572.3 659.947 C 1560.63 648.182 1547.97 635.7 1539.27 621.563 z"/>
<path transform="translate(0,0)" fill="rgb(255,255,255)" d="M 1608.83 958.766 C 1625.78 962.792 1644.59 963.081 1661.95 965.005 C 1665.97 973.48 1671.16 981.65 1675.77 989.839 C 1678.12 994.018 1685.56 1005.01 1684.37 1009.25 C 1679.67 1010.58 1673.62 1009.27 1668.76 1008.8 C 1643.47 1005.1 1617.58 1005.14 1592.35 1000.7 C 1597.66 986.639 1602.95 972.6 1608.83 958.766 z"/>
<path transform="translate(0,0)" fill="rgb(255,255,255)" d="M 1332.33 720.409 C 1336.69 719.891 1341.28 720.057 1345.68 719.949 C 1333.12 736.205 1319.39 751.712 1306.4 767.646 C 1273.56 768.658 1239.69 768.675 1206.88 767.146 L 1193.07 766.738 C 1195.9 764.385 1198.77 762.124 1201.84 760.086 C 1223.71 745.574 1250.54 742.476 1275.88 747.518 C 1292.04 729.936 1308.68 722.201 1332.33 720.409 z"/>
<path transform="translate(0,0)" fill="rgb(255,255,255)" d="M 490.216 647.415 C 494.315 646.974 498.644 647.156 502.776 647.066 C 492.162 664.413 477.881 680.852 465.61 697.151 C 416.001 696.153 366.431 701.855 316.75 701.97 L 302.931 702.052 C 323.816 684.714 335.705 693.226 358.086 687.318 C 368.356 684.607 377.034 678.57 386.418 673.882 C 398.732 667.731 413.575 668.076 427.02 667.83 C 446.886 653.643 466.17 649.289 490.216 647.415 z"/>
<path transform="translate(0,0)" fill="rgb(255,255,255)" d="M 241.823 777.094 C 253.445 777.609 259.975 782.199 268.796 789.102 C 274.691 787.901 280.411 786.993 286.439 787.864 C 297.735 789.497 305.515 796.036 312.204 804.816 C 329.757 803.2 345.806 807.35 360.909 816.298 L 247.308 816.206 L 126.257 816.051 C 139.941 803.019 152.852 799.096 171.496 799 C 175.613 794.874 179.936 790.87 184.993 787.921 C 197.7 780.512 210.469 781.54 223.978 785.372 C 229.684 781.625 235.167 778.765 241.823 777.094 z"/>
<path transform="translate(0,0)" fill="rgb(255,255,255)" d="M 1649.39 715.375 C 1661.36 714.347 1674.83 715.908 1686.04 720.363 C 1698.72 725.408 1708.09 733.522 1713.61 746.13 C 1728 741.13 1740.45 737.801 1755.72 740.2 C 1773.65 743.017 1785.83 751.253 1796.49 765.83 C 1820.93 771.145 1834.86 770.694 1860.09 780.48 A 925.328 925.328 0 0 1 1833.75 782.19 A 1033.61 1033.61 0 0 1 1744.57 785.968 C 1720.96 786.133 1697.14 785.403 1673.6 787.199 C 1664.91 778.027 1657.45 767.537 1649.53 757.69 C 1640.11 745.998 1630.05 734.608 1621.32 722.397 C 1630.8 718.585 1639.23 716.427 1649.39 715.375 z"/>
<path transform="translate(0,0)" fill="rgb(255,255,255)" d="M 1302.13 399.397 C 1323.89 397.933 1346.38 399.277 1368.17 400.105 A 2001.02 2001.02 0 0 1 1471.97 406.316 A 2593.16 2593.16 0 0 1 1639.39 427.921 C 1692.14 436.205 1752.84 445.39 1802.46 465.49 C 1834.28 478.382 1867.05 498.466 1889.08 525.204 C 1901.9 540.762 1912.85 559.961 1919.16 579.133 C 1926.22 600.579 1929.09 623.856 1932.58 646.133 A 1591.1 1591.1 0 0 1 1949.6 803.043 C 1950.82 824.013 1952.6 846.329 1950.66 867.261 A 3147.54 3147.54 0 0 0 1923.5 674.169 C 1919.12 649.991 1915.36 625.07 1908.6 601.428 C 1904.01 585.368 1898 569.737 1889.06 555.575 C 1870.54 526.25 1843.15 505.93 1812.34 490.907 C 1761.12 465.936 1701.53 454.909 1645.91 444.333 A 2852.29 2852.29 0 0 0 1398.37 408.503 A 1265.95 1265.95 0 0 0 1339.81 403.098 C 1327.95 402.193 1314.63 402.4 1303.07 399.637 C 1302.75 399.562 1302.44 399.477 1302.13 399.397 z"/>
<path transform="translate(0,0)" fill="rgb(255,255,255)" d="M 761.201 407.51 L 762.235 407.485 C 762.21 408.677 758.394 408.892 757.073 409.131 C 724.053 415.094 690.26 418.576 657.034 423.401 C 530.938 441.713 403.332 462.818 281.402 500.571 C 255.57 508.569 229.254 515.891 204.981 528.026 A 132.453 132.453 0 0 0 170.262 552.564 A 182.624 182.624 0 0 0 125.833 622.115 C 117.122 646.88 116.654 675.092 113.1 701.001 C 108.293 736.048 100.209 779.259 99.7588 814.015 L 98.6011 813.683 C 98.5116 812.802 98.4032 811.922 98.3571 811.038 C 97.6098 796.702 98.877 781.643 99.1058 767.259 C 99.8202 722.338 99.4165 648.184 112.342 606.836 C 118.963 585.657 131.503 564.959 146.443 548.622 A 166.634 166.634 0 0 1 193.727 512.117 C 231.686 492.795 280.559 480.291 322.063 470.166 A 2365.1 2365.1 0 0 1 567.559 425.91 C 631.973 417.427 696.266 410.463 761.201 407.51 z"/>
<path transform="translate(0,0)" fill="rgb(250,157,68)" d="M 982.655 974.274 C 996.592 972.852 1009.99 974.026 1023.39 978.139 C 1048.81 985.939 1068.37 1001.76 1080.89 1025.21 A 9709.89 9709.89 0 0 1 998.697 1117.85 L 988.347 1130.17 A 5673.68 5673.68 0 0 1 911.64 1023.41 C 913.959 1019.5 916.291 1015.59 918.897 1011.85 C 934.385 989.662 956.49 978.857 982.655 974.274 z"/>
<path transform="translate(0,0)" fill="rgb(255,255,255)" d="M 693.671 613.256 A 100.087 100.087 0 0 1 720.765 614.011 C 749.055 618.884 770.268 634.147 786.656 657.173 C 809.272 647.924 823.999 648.246 847.054 656.371 C 858.71 653.038 871.114 651.274 883.176 653.284 C 899.174 655.95 909.679 665.18 918.887 677.835 C 926.689 675.09 933.505 673.171 941.886 673.431 C 961.909 674.053 1018.48 693.795 1040.55 700.869 A 1598.76 1598.76 0 0 1 970.25 700.475 C 868.752 699.111 767.587 694.935 666.019 696.293 C 655.411 684.286 645.753 671.403 635.55 659.046 C 628.254 650.209 619.001 641.058 613.147 631.325 C 613.563 629.41 613.127 629.692 614.57 628.633 C 623.282 622.24 647.245 626.679 657.859 627.888 C 669.518 620.043 679.866 615.685 693.671 613.256 z"/>
<path transform="translate(0,0)" fill="rgb(255,255,255)" d="M 1321.71 567.389 C 1342.71 564.036 1364.63 569.743 1382.96 579.781 C 1384.9 578.884 1386.85 578.08 1388.85 577.317 C 1413.59 567.891 1443.45 572.804 1467.04 583.327 C 1444.19 606.545 1424.71 633.087 1401.68 655.953 L 1261.25 656.262 C 1210.99 656.134 1160.54 657.033 1110.29 655.748 A 57.3545 57.3545 0 0 1 1130.26 630.651 C 1142.57 621.996 1157.54 620.279 1172.08 622.81 L 1174.16 621.228 C 1193.98 606.339 1210.28 606.276 1233.86 609.6 C 1257.78 585.168 1287.83 571.189 1321.71 567.389 z"/>
<path transform="translate(0,0)" fill="rgb(255,255,255)" d="M 562.935 596.344 C 563.253 596.432 563.582 596.488 563.889 596.608 C 565.829 597.367 567.255 598.774 568.597 600.316 C 577.771 610.855 586.185 622.491 595.002 633.378 C 614.308 657.22 633.9 680.88 652.854 705 C 664.405 719.697 675.311 734.899 686.973 749.509 C 713.33 782.528 739.22 815.738 764.934 849.271 C 774.628 861.912 787.892 875.549 795.244 889.527 A 1591.5 1591.5 0 0 1 794.014 935.777 C 791.455 935.922 789.657 934.735 787.384 933.591 C 776.832 928.279 766.655 922.105 756.198 916.59 C 736.387 906.143 716.244 896.237 696.186 886.267 C 681.473 878.954 666.761 871.336 651.273 865.783 C 646.771 848.331 639.274 830.878 633.73 813.595 L 584.831 664.484 C 577.398 642.147 567.978 619.269 562.935 596.344 z"/>
<path transform="translate(0,0)" fill="rgb(255,255,255)" d="M 297.418 950.701 C 309.914 966.464 327.25 1013.36 338.214 1034.61 C 326.746 1053.04 311.054 1069.67 298.094 1087.18 C 287.607 1101.36 277.503 1115.83 266.711 1129.77 C 254.131 1146.03 240.79 1161.7 228.192 1177.95 C 211.677 1199.25 195.852 1221.33 178.393 1241.86 C 169.61 1243.92 160.835 1245.39 151.93 1246.79 C 141.415 1248.47 130.94 1250.18 120.509 1252.35 C 117.596 1233.5 115.781 1214.42 113.59 1195.47 C 136.551 1166.87 158.265 1136.97 180.197 1107.57 C 193.818 1089.31 207.98 1071.45 221.32 1052.98 L 266.712 991.275 C 276.764 977.681 286.547 963.637 297.418 950.701 z"/>
<path transform="translate(0,0)" fill="rgb(255,255,255)" d="M 1711.16 948.969 C 1715.07 950.76 1757.3 1008.5 1765.01 1017.36 C 1768.18 1021.01 1771.56 1024.41 1776.59 1024.75 C 1786.96 1020.32 1804.49 989.472 1810.94 978.778 C 1828.86 996.261 1844.98 1016.33 1861.3 1035.31 L 1948.52 1137.45 C 1945.05 1182.43 1940.75 1228.15 1934.14 1272.78 C 1932.56 1282.59 1930.98 1292.36 1928.84 1302.06 C 1914.28 1299.03 1899.94 1294.57 1885.49 1291.03 C 1867.25 1286.57 1848.76 1283.05 1830.34 1279.41 C 1821.3 1251.57 1809 1224.62 1797.29 1197.82 C 1762.01 1117.09 1721.01 1039.48 1679.13 962.024 C 1690.12 958.793 1700.43 953.091 1711.16 948.969 z"/>
<path transform="translate(0,0)" fill="rgb(255,255,255)" d="M 1504.1 651.879 C 1517.68 668.49 1526.6 694.547 1536.36 713.989 A 6960.09 6960.09 0 0 1 1621.93 887.461 A 2170.29 2170.29 0 0 0 1577.92 992.827 C 1563.19 980.769 1487.43 915.827 1476.99 913.379 C 1470.69 918.517 1465.84 927.006 1461.11 933.654 A 1900.76 1900.76 0 0 0 1435.82 969.696 C 1429.53 979.055 1423.75 988.925 1416.58 997.639 C 1395.73 969.87 1381.93 937.207 1362.35 908.658 C 1373.5 887.134 1385.96 866.202 1397.88 845.09 A 5748.04 5748.04 0 0 0 1448.81 753.027 L 1482.88 689.3 C 1489.41 677.006 1495.6 662.887 1504.1 651.879 z"/>
<path transform="translate(0,0)" fill="rgb(255,255,255)" d="M 1485.06 583.579 C 1491.18 586.606 1521.51 627.621 1528.35 635.968 L 1694.6 839.656 C 1729.84 882.478 1766.77 924.191 1801.13 967.709 C 1791.51 979.167 1783.09 991.714 1774.42 1003.9 C 1760.73 987.721 1729.34 938.984 1716.52 929.748 C 1707.32 929.019 1681.42 944.011 1672.09 948.676 C 1664.86 936.294 1658.69 922.96 1652.17 910.181 A 6542.31 6542.31 0 0 1 1604.47 813.55 C 1580.83 765.074 1555.68 717.647 1531.26 669.595 C 1525.54 658.075 1519.08 640.28 1509.69 631.78 C 1507.56 629.859 1505.1 628.722 1502.19 629.312 C 1498.45 630.07 1496.12 633.223 1494.06 636.139 C 1488.46 644.053 1484.29 653.337 1479.65 661.841 L 1457.78 701.8 A 8298.16 8298.16 0 0 1 1385.85 832.263 C 1372.55 856.373 1360.56 882.91 1344.56 905.253 C 1328.51 912.597 1313.59 922.504 1298.58 931.731 C 1289.4 919.665 1283.14 906.153 1272.1 895.437 C 1255.95 903.106 1229.71 925.778 1213.57 936.973 C 1208.21 929.244 1204.73 920.26 1201.27 911.572 C 1207.94 903.195 1215.42 895.363 1222.35 887.184 C 1250.34 854.14 1279.24 822.149 1307.88 789.704 C 1340.5 752.761 1371.65 714.464 1404.12 677.371 C 1431.15 646.487 1461.12 616.934 1485.06 583.579 z"/>
<path transform="translate(0,0)" fill="rgb(255,255,255)" d="M 1028.94 806.449 C 1029.51 806.428 1030.08 806.4 1030.65 806.385 C 1055.99 805.73 1078.45 815.608 1096.58 832.842 C 1108.64 830.091 1120.37 827.878 1132.81 828.747 C 1155.83 830.354 1176.41 841.334 1191.47 858.664 C 1197.04 865.078 1201.62 872.263 1207.25 878.631 L 1207.94 879.391 C 1195.26 896.586 1180.35 912.387 1166.27 928.44 A 7671.6 7671.6 0 0 0 1092.26 1013.05 C 1081.57 998.299 1070.68 984.886 1054.94 975.164 A 116.078 116.078 0 0 0 967.79 960.918 C 938.07 969.346 918.254 983.091 901.35 1009.09 L 829.74 910.442 C 817.77 893.88 804.629 877.38 794.201 859.805 C 816.051 842.71 838.004 825.316 865.027 817.24 C 902.292 806.103 935.454 816.051 968.48 833.826 C 991.773 815.8 998.02 808.923 1028.94 806.449 z"/>
<path transform="translate(0,0)" fill="rgb(255,255,255)" d="M 1269.19 916.073 C 1276.01 922.718 1285.2 941.544 1292.21 950.596 C 1307.44 945.096 1323.94 933.834 1337.31 924.618 C 1327.34 950.198 1307.29 979.032 1293.56 1003.64 A 5022.44 5022.44 0 0 1 1198.03 1168.22 C 1171.85 1210.64 1143.82 1251.93 1118.05 1294.6 C 1103.07 1289.57 1099.18 1283.57 1090.21 1271.35 C 1058.42 1229.35 1029.14 1185.33 997.996 1142.82 C 1024.78 1112.14 1052.35 1082.14 1079.31 1051.61 C 1115.49 1010.63 1151.26 969.152 1188.42 929.055 C 1191.87 933.436 1194.04 938.291 1196.6 943.206 C 1198.21 946.303 1202.83 954.954 1206.37 955.577 C 1215.1 957.114 1258.55 922.709 1269.19 916.073 z"/>
<path transform="translate(0,0)" fill="rgb(255,255,255)" d="M 549.384 610.71 C 556.326 619.941 570.137 671.278 574.971 686.219 L 613.171 802.417 C 621.568 828.005 629.388 853.745 638.81 878.987 C 626.011 911.612 609.596 942.758 597.05 975.447 C 585.308 963.59 573.051 952.267 561.243 940.479 C 553.749 932.999 546.314 923.584 537.873 917.371 C 534.983 915.244 531.399 913.515 527.743 914.589 C 524.727 915.475 522.332 917.939 520.494 920.373 C 513.711 929.355 508.476 940.024 502.549 949.613 C 494.541 962.57 485.907 975.203 477.536 987.931 C 466.808 964.545 457.658 940.597 447.5 916.988 C 445.576 912.517 443.365 905.472 438.566 903.567 C 435.584 903.594 434.484 904.249 432.039 905.758 C 420.97 919.083 411.329 934.433 401.164 948.515 C 383.682 972.731 365.753 996.512 347.811 1020.38 C 335.097 992.174 322.711 963.536 307.893 936.347 C 325.888 910.145 345.564 885.03 364.352 859.393 L 549.384 610.71 z"/>
<path transform="translate(0,0)" fill="rgb(255,255,255)" d="M 658.924 884.63 C 668.703 887.75 678.537 894.417 687.786 899.051 A 2294.01 2294.01 0 0 1 765.348 938.845 C 775.151 944.148 791.075 955.11 801.72 956.955 C 803.147 957.203 804.361 957.423 805.447 956.365 C 811.497 950.471 809.952 921.643 810.218 912.471 C 833.33 941.092 853.484 971.914 875.349 1001.47 A 19397.1 19397.1 0 0 1 1057.2 1253.52 C 1063.47 1262.34 1070.22 1270.9 1076.71 1279.55 C 1046.55 1271.79 1017.14 1261.42 986.853 1254.03 A 1563.8 1563.8 0 0 0 857.081 1227.57 C 825.954 1222.74 794.734 1219.6 763.491 1215.78 C 760.954 1206.49 757.267 1197.28 754.254 1188.11 L 735.943 1131.34 C 719.788 1080.71 704.53 1029.76 688.012 979.245 C 680.681 956.824 659.96 905.298 658.924 884.63 z"/>
<path transform="translate(0,0)" fill="rgb(255,255,255)" d="M 531.371 931.464 C 547.003 944.323 563.178 962.99 577.197 977.825 C 582.547 983.488 587.735 989.85 593.737 994.798 C 596.518 997.091 599.857 999.536 603.618 999.156 C 610.296 992.886 612.501 978.699 615.799 970.098 C 633.165 970.808 650.496 972.369 667.861 972.87 A 693.837 693.837 0 0 1 675.784 997.156 A 1503.43 1503.43 0 0 0 649.562 995.782 C 642.87 995.49 619.083 993.306 614.586 997.421 C 614.568 1000.13 614.577 1000.1 616.287 1002.21 C 625.429 1003.94 635.367 1003.09 644.694 1003.38 C 656.097 1003.74 667.45 1004.64 678.819 1005.55 A 552.871 552.871 0 0 1 689.63 1037.3 C 677.977 1035.87 643.582 1029.63 634.26 1034.06 C 633.226 1035.98 632.94 1035.72 633.416 1038 C 641.945 1042.09 679.623 1043.09 691.979 1044.2 L 704.899 1085.3 C 694.246 1083.63 661.159 1077.59 652.721 1082.79 C 651.788 1085.21 652.066 1085.38 652.867 1087.9 C 655.097 1089.27 701.473 1093.66 707.409 1094.4 C 709.137 1099.42 710.418 1104.6 711.81 1109.72 C 691.986 1105.88 672.79 1103.16 652.771 1100.73 C 647.138 1100.05 640.458 1098.31 634.874 1099.02 C 631.684 1099.42 630.015 1100.65 628.036 1103.06 L 628.254 1104.92 C 629.426 1105.92 630.331 1106.47 631.888 1106.69 C 642.752 1108.2 653.977 1108.38 664.915 1109.55 C 681.37 1111.32 697.742 1114.06 714.088 1116.63 C 717.904 1126.84 721.399 1137.03 724.538 1147.46 C 704.836 1144.93 683.343 1139.56 663.533 1140.68 C 661.887 1142.67 661.871 1142.91 661.624 1145.49 C 666.776 1148.71 716.55 1154.24 726.711 1155.65 C 730.588 1165.26 733.472 1175.49 736.737 1185.33 C 725.433 1184.45 697.626 1178.88 688.631 1183.21 L 688.547 1184.5 C 697.2 1192.1 727.281 1192.56 739.151 1193.18 L 746.859 1214.43 C 722.841 1213.53 698.82 1211.21 674.797 1210.01 A 2109.47 2109.47 0 0 0 574.823 1208.14 C 493.453 1208.62 412.25 1216.22 331.216 1222.84 C 316 1223.76 300.659 1226.16 285.517 1228 L 203.768 1237.95 C 208.496 1231.03 213.131 1224.08 218.531 1217.66 C 232.056 1215.81 297.189 1207.7 306.109 1200.83 C 307.444 1199.8 307.02 1199.93 307.278 1198.03 L 305.249 1196.23 C 303.132 1195.68 301.402 1195.28 299.212 1195.59 C 293.183 1196.45 287.193 1198.7 281.167 1199.87 C 262.622 1203.46 243.689 1206.59 224.9 1208.53 A 1564.49 1564.49 0 0 1 247.819 1180.68 C 261.323 1179.44 335.673 1162.66 345.071 1156.91 C 347.124 1155.66 346.609 1156.42 347.083 1154.48 C 346.815 1154.32 346.563 1154.13 346.279 1154 C 336.426 1149.53 268.222 1169.2 254.162 1173.1 C 262.767 1160.31 273.671 1142.82 286.271 1133.92 C 296.53 1126.68 310.812 1125.78 322.783 1122.75 C 328.761 1121.24 359.417 1112.75 362.531 1109.45 C 362.341 1107.04 362.397 1107.17 360.607 1105.54 C 350.661 1104.77 305.865 1118.34 293.144 1121.93 C 300.358 1112.74 306.924 1102.99 313.539 1093.36 C 324.282 1093.11 395.005 1081.21 400.877 1076.32 C 402.12 1075.28 401.849 1074.67 402.037 1073.19 C 394.982 1068.4 333.552 1082.82 319.702 1084.11 C 327.964 1072.46 337.386 1061.36 346.197 1050.1 C 359.648 1047.51 372.396 1043.76 385.629 1040.39 C 393.053 1038.49 401.319 1037.35 408.362 1034.34 C 410.676 1033.35 411.761 1032.76 412.713 1030.36 L 411.288 1028.44 C 401.355 1024.13 366.973 1037.73 354.37 1039.75 L 352.679 1040.01 C 367.906 1020.68 381.626 999.411 397.909 981.045 C 415.767 977.427 432.539 970.008 450.456 966.454 C 457.478 980.937 462.592 999.025 471.946 1012.05 C 474.328 1013.15 475.833 1013.5 478.452 1012.75 C 484.092 1011.15 525.992 940.881 531.371 931.464 z"/>
<path transform="translate(0,0)" fill="rgb(0,0,0)" d="M 609.835 1057.11 C 621.047 1056.62 640.653 1054.84 650.338 1060.74 C 651.797 1063.5 651.239 1064.05 650.571 1067 C 639.466 1066.75 620.034 1067.43 610.254 1062.5 C 608.761 1060.06 609.175 1059.96 609.835 1057.11 z"/>
<path transform="translate(0,0)" fill="rgb(255,255,255)" d="M 1492.72 1270.46 A 1489.95 1489.95 0 0 1 1927.51 1320.57 C 1913.46 1399.18 1899.14 1476.38 1877.49 1553.36 L 1854.66 1558.26 C 1841.92 1524.65 1837.88 1487.22 1833.4 1451.81 C 1840.72 1463.08 1855.91 1490.46 1867.69 1495.12 C 1870.55 1494.93 1871.25 1494.94 1873.27 1492.63 C 1875.12 1490.51 1875.67 1487.64 1874.58 1485.04 C 1871.47 1477.65 1865.03 1471.02 1860.8 1464.07 C 1847.1 1441.5 1838.56 1419.24 1834 1393.22 C 1840.43 1402.81 1848.62 1418.03 1858.41 1424.41 C 1861.19 1426.23 1862.94 1426.2 1866.09 1425.48 C 1867.7 1423.99 1868.63 1423.15 1869.38 1421.01 C 1869.98 1419.32 1869.81 1417.79 1869.03 1416.17 C 1866.62 1411.19 1862.55 1406.35 1859.57 1401.62 A 221.558 221.558 0 0 1 1844.62 1374.22 A 276.869 276.869 0 0 1 1830.61 1337.22 C 1828.26 1329.44 1827.02 1320.2 1823.3 1313.02 C 1821.1 1311.4 1820.85 1311.27 1818.13 1311.12 C 1815.98 1313.07 1814.95 1315.07 1813.81 1317.72 C 1810.44 1325.52 1808.54 1334.22 1805.68 1342.26 C 1798.79 1361.57 1789.74 1382.54 1779.06 1400.04 C 1775.12 1406.49 1759.12 1424.12 1758.86 1429.83 C 1758.74 1432.4 1760.15 1434.61 1761.99 1436.25 C 1763.91 1437.96 1766 1438.75 1768.6 1438.32 C 1781.99 1436.09 1795.59 1408.5 1802.68 1397.89 C 1797.72 1425.89 1769.04 1471.61 1751.15 1494.63 C 1747.86 1498.86 1742.35 1505.44 1743.69 1511.14 C 1744.29 1513.67 1745.93 1515.96 1748.25 1517.19 C 1750.21 1518.22 1752.38 1518.13 1754.43 1517.42 C 1768.67 1512.46 1786.81 1476.35 1793.52 1462.61 C 1789.39 1502.49 1782.08 1544.59 1768.24 1582.37 C 1750.05 1585.43 1731.86 1589.85 1713.77 1593.54 C 1702.64 1547.07 1689.97 1491.4 1687.76 1443.91 C 1696.62 1461.6 1706.18 1482.02 1719.64 1496.66 C 1722.8 1500.11 1727.57 1504.1 1732.58 1503.68 C 1737.04 1503.3 1739.29 1500.32 1741.78 1497.05 C 1740.43 1488.22 1717.88 1459.31 1712.26 1448.65 C 1700.64 1426.64 1690.61 1403.17 1684.22 1379.11 C 1693.93 1393.11 1704.24 1416.48 1716.59 1427.28 C 1719.59 1429.9 1723.8 1432.14 1727.91 1431.42 C 1732.61 1430.59 1734.95 1426.89 1737.64 1423.37 C 1732.52 1415.38 1725.84 1408.23 1719.99 1400.75 A 240.987 240.987 0 0 1 1695.64 1362.18 C 1689.53 1349.86 1684.69 1336.29 1680.92 1323.04 C 1679.36 1317.52 1677.75 1304.79 1674.13 1300.76 C 1672.21 1298.62 1671.29 1299.07 1668.59 1299.1 C 1667.33 1299.79 1666.19 1300.45 1665.28 1301.6 C 1662.36 1305.31 1646.05 1349.81 1642.65 1357.95 C 1632.39 1382.51 1620.26 1404.38 1604.51 1425.78 C 1602.24 1428.86 1598 1434.51 1598.74 1438.42 C 1599.43 1442.13 1601.07 1444.64 1604.13 1446.75 C 1605.91 1447.13 1607.03 1447.29 1608.83 1446.8 C 1621.83 1443.26 1642.98 1401.88 1649.68 1389.91 C 1646.65 1405.95 1641.78 1420.42 1634.23 1434.93 C 1623.75 1455.05 1609.59 1473.64 1596.91 1492.44 C 1592.68 1498.73 1587.61 1505.15 1584.14 1511.87 C 1582.92 1514.25 1581.61 1516.82 1581.97 1519.58 C 1582.26 1521.9 1583.87 1525.25 1585.96 1526.59 C 1588.3 1528.08 1590.34 1528.25 1592.96 1527.5 C 1606.01 1523.75 1633.64 1472.57 1640.83 1459.78 C 1637.37 1485.63 1630.96 1511 1626 1536.59 C 1621.13 1561.76 1617.64 1587.21 1613.46 1612.5 C 1599.39 1615.35 1585.27 1617.67 1571.1 1619.93 L 1570.69 1618.77 C 1561.04 1591.4 1533.88 1570.22 1513.53 1550.59 A 1216.48 1216.48 0 0 0 1241.2 1349.8 C 1219.76 1338.38 1197.35 1328.39 1175.47 1317.81 C 1198.34 1309.53 1222.41 1304.42 1246.12 1299.2 C 1327.64 1281.28 1409.47 1273.4 1492.72 1270.46 z"/>
<path transform="translate(0,0)" fill="rgb(255,255,255)" d="M 1353.5 926.553 C 1360.15 932.806 1395.88 995.954 1402.92 1007.72 C 1405.63 1012.24 1409.15 1018.15 1414.56 1019.45 C 1417.58 1018.81 1419.33 1017.68 1421.48 1015.53 C 1433.2 1003.82 1443.11 987.832 1452.56 974.19 A 899.938 899.938 0 0 1 1481.02 934.818 C 1507.01 952.132 1530.84 974.72 1555.11 994.473 C 1562.24 1000.27 1569.48 1007.02 1577.17 1012.01 C 1579.24 1013.35 1580.83 1014.46 1583.38 1014.39 C 1586.59 1012.9 1588.44 1009.58 1590.44 1006.77 C 1616.57 1013.16 1662.99 1017.36 1690.03 1017.05 C 1698.95 1033.09 1707.48 1049.77 1715.23 1066.4 C 1699.44 1064.4 1684.08 1061.74 1668.55 1058.25 C 1656.97 1055.65 1644.99 1052.14 1633.25 1050.57 C 1630.18 1050.15 1627.09 1049.83 1624.22 1051.22 C 1622.69 1051.96 1622.99 1052.46 1622.62 1053.94 C 1622.85 1054.28 1623.06 1054.64 1623.32 1054.96 C 1629.25 1062.1 1705.36 1072.69 1720 1073.63 A 1174.55 1174.55 0 0 1 1746.36 1128.89 C 1732.09 1126.2 1653.05 1107.9 1645.73 1111.69 C 1645.6 1113.64 1645.29 1113.16 1646.36 1114.65 C 1647.26 1115.92 1648.27 1117.02 1649.7 1117.68 C 1656 1120.58 1665.74 1121.43 1672.58 1122.79 C 1698.33 1127.92 1723.95 1132.95 1750.03 1136.18 C 1756.77 1147.7 1762.45 1159.82 1768.08 1171.9 C 1738.71 1168.25 1706.9 1160.79 1678.72 1151.63 C 1677.06 1151.09 1676.98 1151.46 1675.41 1152.06 C 1674.49 1154.36 1674.66 1154.57 1675.28 1157 C 1681.16 1164.1 1756.59 1178.31 1770.94 1181.23 C 1775.91 1191.01 1780.26 1200.8 1784.35 1210.98 C 1772.2 1208.47 1732.05 1194.69 1722.91 1198.89 L 1722.85 1200.27 C 1731.13 1208.85 1774.98 1216.9 1788.2 1219.46 C 1793.65 1229.54 1797.79 1240.31 1802.03 1250.94 C 1782.44 1246.58 1763.19 1240.38 1743.4 1236.9 C 1739.29 1236.18 1732.52 1234.53 1728.92 1237.05 L 1729.22 1238.85 C 1731.14 1240.65 1733.05 1242.01 1735.56 1242.88 C 1741.88 1245.09 1749.29 1245.66 1755.86 1247.18 C 1772.34 1251 1788.73 1255.32 1805.15 1259.35 L 1811.97 1275.79 C 1796.08 1273.75 1780.36 1270.35 1764.48 1268.14 A 1731.36 1731.36 0 0 0 1637.25 1255.08 C 1496.28 1247.88 1351.1 1254.23 1213.79 1288.95 C 1193.32 1294.12 1169.83 1298.21 1151.19 1308.11 L 1133.5 1300.54 L 1140.67 1287.55 C 1152.9 1286.93 1168.54 1284.8 1180.17 1280.84 C 1182.8 1279.94 1184.21 1278.83 1185.29 1276.17 C 1185.47 1275.71 1185.58 1275.24 1185.73 1274.77 L 1185.78 1275.73 L 1184.28 1273.65 C 1173.04 1271.43 1158.29 1276.9 1146.94 1278.65 C 1153.48 1268.21 1159.97 1257.81 1167.23 1247.86 C 1186.47 1246.1 1204.96 1242.97 1223.95 1239.85 C 1228.37 1239.13 1234.48 1239.29 1238.58 1237.58 C 1241.81 1236.24 1243.87 1234.73 1245.21 1231.43 L 1244.24 1229.71 C 1237.45 1227.53 1183.79 1237.64 1173.41 1239.06 A 1033.66 1033.66 0 0 1 1200.66 1195.99 C 1210.03 1194.63 1269.16 1184.99 1272.9 1182.7 C 1275.04 1181.39 1275.22 1180.37 1275.56 1178.15 L 1274.47 1176.95 C 1263.17 1173.62 1220.08 1184.36 1206.11 1186.73 A 649.976 649.976 0 0 1 1231.64 1145.33 C 1246.24 1142.64 1309.51 1129.92 1319.07 1122.72 L 1318.93 1121.29 C 1314.64 1119.15 1308.91 1119.42 1304.26 1120.03 C 1298.96 1120.73 1293.43 1122.84 1288.21 1124.16 C 1271.9 1128.28 1254.97 1133.35 1238.26 1135.43 L 1236.81 1135.61 C 1243.78 1120.67 1253.65 1106.46 1261.54 1091.9 C 1274.05 1089.69 1335.25 1076.88 1342.34 1070.68 C 1342.96 1068.35 1342.88 1068.47 1341.74 1066.32 C 1341.01 1065.94 1340.37 1065.27 1339.55 1065.19 C 1333.97 1064.59 1277.25 1081.1 1266.36 1083.58 C 1273.15 1070.01 1281.76 1053.03 1291.99 1041.84 C 1307.61 1037.25 1325.47 1035.36 1340.42 1029.28 C 1343.29 1028.12 1343.35 1027.92 1344.48 1025.19 L 1343.56 1023.39 C 1334.69 1019.67 1306.23 1029.81 1295.74 1032.06 C 1301.66 1022.16 1307.64 1012.13 1312.35 1001.59 C 1322.11 999.794 1367.44 991.108 1373.14 986.323 C 1373.88 985.7 1374.25 984.736 1374.8 983.942 C 1375.02 981.484 1375.47 981.684 1373.87 979.581 C 1365.33 978.66 1331.17 988.898 1319.6 991.23 C 1331.43 969.924 1343 948.548 1353.5 926.553 z"/>
<path transform="translate(0,0)" fill="rgb(0,0,0)" d="M 1486.41 990.5 C 1492.01 990.299 1497.78 989.861 1503.38 990.149 C 1507.37 990.355 1511.03 990.634 1513.82 993.682 L 1513.43 995.836 C 1506.55 1000.92 1485.91 998.398 1477.03 998.287 C 1469.44 998.446 1458.17 1000.2 1451.1 997.761 C 1450.28 995.476 1450.29 995.516 1451.13 993.238 C 1456.49 989.32 1478.59 990.76 1486.41 990.5 z"/>
<path transform="translate(0,0)" fill="rgb(255,255,255)" d="M 573.252 1225.48 A 1580.93 1580.93 0 0 1 1003.33 1276.23 A 1117.57 1117.57 0 0 1 1478.38 1539.66 C 1504.76 1564.43 1534.23 1590.48 1552.69 1621.89 C 1501.16 1631.01 1448.74 1635.39 1396.74 1640.96 C 1097.4 1673.05 810.259 1662.74 512.433 1623.19 C 499.994 1608.19 485.94 1594.66 473.305 1579.84 C 435.673 1535.7 416.533 1486.75 406.761 1430.16 C 413.861 1444.08 427.24 1466.63 438.629 1476.9 C 441.504 1479.49 444.079 1481.14 448.089 1481.01 C 449.592 1480.32 450.553 1479.82 451.509 1478.39 C 453.457 1475.47 454.145 1471.76 452.873 1468.47 C 449.485 1459.69 442.224 1451.69 437.357 1443.59 C 423.457 1420.45 408.891 1394.37 401.94 1368.21 C 410.682 1379.42 419.29 1390.77 428.724 1401.41 C 430.114 1402.89 431.499 1404.33 433.176 1405.5 C 436.329 1407.68 439.756 1408.09 443.455 1407.53 C 445.638 1406 446.22 1405.59 446.916 1402.84 C 447.441 1400.76 447.018 1398.08 446.006 1396.22 C 441.139 1387.27 433.443 1378.77 427.392 1370.46 C 420.259 1360.67 413.945 1350.26 407.911 1339.76 C 403.628 1332.31 399.013 1324.58 395.701 1316.65 C 390.43 1304.02 386.062 1286.46 378.75 1275.3 C 377.107 1272.79 375.433 1270.77 372.343 1270.22 C 370.857 1270.6 369.412 1270.64 368.305 1271.8 C 364.592 1275.71 346.616 1346.89 338.377 1362.86 C 334.38 1370.61 320.895 1389.83 321.459 1397.29 C 321.63 1399.56 323.126 1401.78 325.045 1402.94 C 326.982 1404.11 329.575 1404.39 331.716 1403.64 C 341.227 1400.29 350.526 1376.81 355.012 1367.63 C 351.149 1391.94 334.304 1435.76 322.55 1457.47 C 319.99 1462.2 311.355 1475.35 312.969 1480.31 C 313.851 1483.02 315.997 1485.5 318.561 1486.76 C 320.179 1487.55 322.055 1487.31 323.644 1486.52 C 335.272 1480.76 350.779 1442.93 355.338 1430.94 C 350.809 1486.46 344.902 1540.91 349.012 1596.66 C 333.99 1593.72 319.004 1590.78 304.117 1587.21 C 288.365 1550.99 273.377 1516.14 266.01 1477 C 273.323 1489.12 280.386 1502.03 289.36 1513.01 C 292.235 1516.52 294.322 1518.9 299.091 1519.4 C 302.295 1518.47 303.43 1517.44 305.717 1515.16 C 306.577 1510.76 304.519 1506.03 302.617 1502.12 C 298.978 1494.64 293.749 1487.55 289.337 1480.49 C 276.432 1459.85 261.003 1436.68 253.744 1413.31 C 260.757 1419.74 266.273 1427.69 272.467 1434.88 C 275.316 1438.18 279.018 1442.47 283.777 1442.29 C 286.338 1442.19 288.772 1441.09 290.387 1439.11 C 291.595 1437.63 291.932 1435.28 291.402 1433.45 C 288.883 1424.75 271.553 1405.66 265.823 1397.04 A 279.227 279.227 0 0 1 247.104 1363.88 C 243.516 1356.39 239.525 1339.24 232.528 1334.84 C 231.169 1333.98 230.57 1334.42 229.105 1334.66 C 221.62 1339.84 219.788 1358.51 217.915 1366.94 C 213.643 1386.16 206.829 1405.24 196.899 1422.3 C 191.142 1432.2 182.751 1442.1 179.407 1453.07 C 179.615 1455.56 180.15 1457.65 182.094 1459.42 C 183.849 1461.02 185.66 1461.2 187.892 1460.75 C 197.531 1458.83 215.572 1423.51 222.113 1414.63 L 221.968 1415.47 C 221.884 1415.94 221.791 1416.41 221.711 1416.88 C 217.891 1439.23 197.056 1479.28 185.805 1499.43 C 182.403 1505.53 178.162 1511.25 174.959 1517.42 C 173.703 1519.84 172.512 1521.83 172.617 1524.62 C 173.625 1527.14 174.544 1529.86 177.131 1531.21 C 179.063 1532.22 180.771 1532.13 182.772 1531.49 C 194.406 1527.79 213.302 1483.38 219.748 1471.1 C 216.52 1503.34 213.533 1535.14 216.018 1567.53 C 203.13 1566.56 189.89 1561.81 177.524 1558.18 C 166.53 1525.98 161.178 1490.52 154.512 1457.2 C 142.051 1394.92 130.014 1332.96 122.623 1269.82 A 2965.55 2965.55 0 0 1 573.252 1225.48 z"/>
</svg>